<?xml version="1.0" encoding="iso-8859-1"?><!-- Generator: Adobe Illustrator 22.0.1, SVG Export Plug-In . SVG Version: 6.00 Build 0)  --><svg xmlns="http://www.w3.org/2000/svg" xmlns:xlink="http://www.w3.org/1999/xlink" viewBox="0 0 30 30" width="48px" height="48px" fill="#f9f5ff"><polygon points="4.796,20.836 3.107,27 9.415,25.344 "/><path d="M15,3C8.373,3,3,8.373,3,15c0,6.627,5.373,12,12,12s12-5.373,12-12C27,8.373,21.627,3,15,3z M20.924,19.143c-0.247,0.693-1.461,1.363-2.005,1.41c-0.549,0.051-1.061,0.247-3.568-0.74c-3.024-1.191-4.931-4.289-5.08-4.489c-0.149-0.195-1.21-1.61-1.21-3.07c0-1.465,0.768-2.182,1.037-2.48c0.274-0.298,0.595-0.372,0.795-0.372c0.195,0,0.395,0,0.568,0.009c0.214,0.005,0.447,0.019,0.67,0.512c0.265,0.586,0.842,2.056,0.916,2.205c0.074,0.149,0.126,0.326,0.023,0.521c-0.098,0.2-0.149,0.321-0.293,0.498c-0.149,0.172-0.312,0.386-0.447,0.516c-0.149,0.149-0.302,0.312-0.13,0.609s0.768,1.27,1.651,2.056c1.135,1.014,2.093,1.326,2.391,1.475s0.47,0.126,0.642-0.074c0.177-0.195,0.744-0.865,0.944-1.163c0.195-0.298,0.395-0.247,0.665-0.149c0.274,0.098,1.735,0.819,2.033,0.968s0.493,0.223,0.568,0.344C21.171,17.854,21.171,18.449,20.924,19.143z"/></svg>